<svg width="172" height="49" viewBox="0 0 172 49" fill="none" xmlns="http://www.w3.org/2000/svg">
<g clip-path="url(#clip0_489_115)">
<path d="M26.3311 17.2984C26.4356 17.0881 26.5603 16.885 26.643 16.666C27.5595 14.264 28.4703 11.8591 29.3811 9.45567C30.2296 7.21614 31.0896 4.98095 31.909 2.73126C32.0671 2.29757 32.2875 2.18008 32.7168 2.18153C37.8973 2.19459 43.0764 2.19314 48.2568 2.19459C48.6107 2.19459 48.9646 2.19023 49.3185 2.19459C49.8493 2.20039 49.9015 2.23955 49.8594 2.78493C49.7782 3.82637 49.6651 4.86491 49.5781 5.90636C49.4548 7.36408 49.3446 8.82326 49.2227 10.281C49.056 12.2827 48.8834 14.2843 48.7151 16.2874C48.4976 18.8809 48.2771 21.4743 48.0668 24.0692C47.9189 25.8954 47.7869 27.723 47.6419 29.5506C47.5433 30.7994 47.4287 32.0483 47.3315 33.2986C47.3011 33.6801 47.1227 33.8121 46.7384 33.8106C43.5375 33.7976 40.3353 33.8019 37.1345 33.799C36.5688 33.799 36.5688 33.7831 36.5079 33.2014C36.2976 31.1867 36.0714 29.1749 35.8669 27.1602C35.658 25.0976 35.4666 23.0336 35.2694 20.9696C35.104 19.242 34.9401 17.5145 34.7719 15.787C34.7618 15.6855 34.7212 15.5854 34.5892 15.465C34.4659 15.7652 34.3368 16.0626 34.2193 16.3657C33.4637 18.3137 32.7038 20.2603 31.9583 22.2126C30.5486 25.9055 29.1418 29.5999 27.7553 33.303C27.6089 33.6931 27.4058 33.8092 27.0142 33.8077C24.569 33.7947 22.1238 33.7932 19.6786 33.8092C19.2174 33.8121 18.9825 33.6337 18.8229 33.2101C17.6047 29.9596 16.3719 26.7134 15.1377 23.4673C14.179 20.9449 13.2117 18.4254 12.2472 15.9045C12.1936 15.7652 12.1283 15.6304 12.0674 15.494C12.0282 15.4998 11.9876 15.5056 11.9485 15.5129C11.9093 15.8392 11.8586 16.1656 11.831 16.4934C11.6468 18.6386 11.4641 20.7853 11.2857 22.9321C11.1117 25.0149 10.9391 27.0964 10.7694 29.1793C10.6592 30.5413 10.546 31.9018 10.4547 33.2652C10.4271 33.6728 10.2647 33.8135 9.85279 33.8092C7.92243 33.7932 5.99208 33.8048 4.06172 33.8034C3.56717 33.8034 3.45115 33.6786 3.41199 33.1797C3.2307 30.8879 3.04506 28.5976 2.86232 26.3059C2.68974 24.1272 2.5244 21.9472 2.34601 19.7686C2.20098 17.9903 2.0342 16.2134 1.88772 14.4352C1.71803 12.3856 1.55705 10.3347 1.39171 8.28369C1.24813 6.48945 1.1118 4.69376 0.955172 2.90097C0.89716 2.2381 0.913113 2.19459 1.5527 2.19459C5.71942 2.19459 9.88615 2.19459 14.0514 2.19459C15.9818 2.19459 17.9121 2.20619 19.8425 2.18443C20.2906 2.18008 20.514 2.35414 20.6619 2.75447C21.4828 4.96935 22.3123 7.18133 23.1506 9.38895C23.709 10.8597 24.2964 12.3204 24.8591 13.7911C25.2318 14.7659 25.5813 15.7493 25.9454 16.7269C26.0164 16.9184 26.1034 17.1026 26.1847 17.2911L26.3282 17.2984H26.3311Z" fill="white"/>
<path d="M81.5166 18.1861C81.5166 12.3958 81.5166 6.60547 81.5166 0.815163C81.5166 0.0580143 81.5819 0.00434664 82.3477 0.00434664C91.7877 0.00434664 101.229 0.00434664 110.669 0.00144569C111.715 0.00144569 112.761 -0.00290574 113.805 0.00144569C114.369 0.00434664 114.424 0.0609152 114.433 0.597592C114.457 2.01181 114.497 3.42602 114.498 4.84024C114.498 6.1094 114.436 7.37857 114.436 8.64919C114.43 17.3158 114.433 25.9824 114.436 34.649C114.436 35.0827 114.453 35.5164 114.484 35.9486C114.504 36.2329 114.407 36.3794 114.115 36.3809C113.986 36.3809 113.858 36.3852 113.729 36.3837C103.389 36.3837 93.0466 36.3809 82.7059 36.3809C82.5449 36.3809 82.3839 36.3808 82.2229 36.391C81.5877 36.4302 81.5152 36.3678 81.5152 35.7484C81.5152 29.8943 81.5152 24.0387 81.5152 18.1846L81.5166 18.1861ZM95.4613 13.0427C95.4178 13.0238 95.3729 13.005 95.3293 12.9861C95.3685 11.9635 95.3859 10.938 95.4555 9.9169C95.5063 9.17861 95.4381 9.06692 94.6912 9.06692C91.2815 9.06547 87.8704 9.06692 84.4608 9.06692C84.3636 9.06692 84.2679 9.07128 84.1707 9.07128C83.8719 9.07128 83.7269 9.21777 83.7313 9.51657C83.7385 10.1113 83.7211 10.7074 83.7501 11.3021C83.8618 13.5968 83.9923 15.89 84.1054 18.1861C84.2403 20.9463 84.3737 23.7066 84.4869 26.4683C84.5739 28.6208 84.6319 30.7733 84.6943 32.9273C84.7146 33.6336 84.7914 33.7613 85.4905 33.7656C88.2577 33.7801 91.0234 33.7729 93.7906 33.7758C94.1619 33.7758 94.3489 33.6075 94.3649 33.2232C94.42 31.9554 94.5128 30.6892 94.5447 29.4215C94.5984 27.2675 94.5563 25.1092 94.6724 22.9596C94.7449 21.6034 94.9682 20.2457 95.2423 18.9142C95.4671 17.8278 96.1285 16.9633 97.2321 16.637C97.6861 16.5035 98.2967 16.5311 98.7158 16.7341C99.541 17.1316 100.057 17.925 100.288 18.7808C100.613 19.9847 100.827 21.2263 100.987 22.465C101.155 23.769 101.194 25.0889 101.303 26.4016C101.437 28.0334 101.582 29.6637 101.722 31.2955C101.776 31.9192 101.838 32.5429 101.88 33.168C101.902 33.4959 102.046 33.6743 102.382 33.6888C102.975 33.7163 103.569 33.7729 104.162 33.7772C106.14 33.7888 108.118 33.7816 110.098 33.7801C110.275 33.7801 110.455 33.7859 110.627 33.7555C110.923 33.7033 111.113 33.5408 111.148 33.2145C111.431 30.6442 111.787 28.0798 111.989 25.5037C112.157 23.344 112.12 21.1668 112.228 19.0012C112.301 17.558 111.808 16.2149 111.618 14.8195C111.608 14.7412 111.57 14.6658 111.536 14.5932C110.719 12.7714 109.738 11.0729 108.008 9.94156C107.553 9.64276 107.151 9.20907 106.655 9.03646C105.541 8.64919 104.414 8.34894 103.186 8.36054C101.354 8.3794 99.7992 9.05242 98.3735 10.0649C97.6498 10.5798 97.0625 11.2905 96.433 11.9316C96.0893 12.2826 95.7847 12.6743 95.4628 13.047L95.4613 13.0427Z" fill="#CC0A5A"/>
<path d="M160.294 18.2629C160.207 17.9206 160.148 17.6465 160.067 17.3781C159.462 15.3997 157.829 14.3568 155.856 14.1769C153.92 14 152.048 14.3669 150.187 14.8311C149.503 15.0023 149.453 14.9863 149.257 14.2857C148.931 13.1253 148.608 11.9635 148.263 10.8104C148.155 10.4536 148.205 10.2534 148.582 10.104C150.748 9.24966 152.983 8.63466 155.301 8.46495C156.93 8.34601 158.576 8.40983 160.212 8.45625C161.98 8.50702 163.671 8.96102 165.312 9.60358C167.523 10.4681 169.233 11.92 170.345 14.0232C171.035 15.3286 171.412 16.7414 171.57 18.2093C171.784 20.1848 171.704 22.156 171.509 24.1272C171.309 26.1419 171.121 28.1566 170.911 30.1713C170.799 31.2418 170.647 32.3079 170.529 33.3769C170.496 33.68 170.357 33.799 170.064 33.799C167.459 33.7961 164.853 33.7961 162.248 33.799C161.948 33.799 161.81 33.6554 161.784 33.3667C161.73 32.7909 161.671 32.2151 161.61 31.6407C161.592 31.4724 161.563 31.3071 161.526 31.0445C161.157 31.3114 160.857 31.513 160.573 31.7364C158.542 33.3247 156.202 34.0862 153.663 34.2617C151.936 34.3806 150.22 34.2704 148.587 33.6133C148.099 33.4161 147.62 33.1767 147.169 32.9055C144.873 31.5217 143.652 29.4592 143.361 26.8135C143.181 25.1802 143.234 23.576 143.814 22.0124C144.367 20.5228 145.392 19.4538 146.747 18.685C148.074 17.9322 149.5 17.4144 151.014 17.2389C152.061 17.117 153.13 17.0909 154.184 17.1359C155.302 17.1838 156.426 17.31 157.529 17.5072C158.422 17.6668 159.288 17.9815 160.297 18.2629H160.294ZM157.975 22.214C157.192 22.2155 156.451 22.3765 155.756 22.7551C154.719 23.3207 154.241 24.2548 154.402 25.4457C154.545 26.5161 155.363 27.4691 156.407 27.6664C157.983 27.9652 159.433 27.5605 160.763 26.7163C160.921 26.6162 161.034 26.3131 161.027 26.11C160.992 25.2281 160.922 24.3477 160.824 23.4701C160.802 23.2787 160.651 23.0364 160.489 22.9393C159.719 22.4853 158.889 22.1981 157.977 22.2126L157.975 22.214Z" fill="white"/>
<path d="M66.535 8.36196C68.7395 8.32135 70.8424 8.56503 72.8482 9.33668C74.7669 10.075 76.4 11.1962 77.4558 13.0325C78.3361 14.5642 78.6581 16.2206 78.4812 17.9554C78.2071 20.646 76.6538 22.4156 74.2448 23.4759C71.9969 24.4651 69.6184 24.6291 67.2036 24.455C66.3566 24.3941 65.514 24.265 64.6699 24.1678C64.2943 24.1243 64.2174 24.22 64.3276 24.6131C64.6946 25.9301 65.5198 26.828 66.799 27.3095C68.139 27.8143 69.5096 27.7635 70.8903 27.5387C72.0911 27.3429 73.1498 26.8309 74.1201 26.11C74.516 25.8155 74.5798 25.8387 74.9047 26.2304C75.785 27.295 76.6639 28.3626 77.5544 29.4185C77.7343 29.6317 77.7444 29.7826 77.553 29.9958C76.3376 31.3491 74.8714 32.3108 73.1803 32.9852C71.6604 33.593 70.1173 34.0688 68.4886 34.2109C66.3305 34.398 64.1942 34.2936 62.0869 33.6989C60.2929 33.1927 58.6729 32.376 57.2299 31.2171C55.8608 30.1177 54.7701 28.8006 54.0392 27.1717C52.834 24.4855 52.6063 21.6788 52.9457 18.817C53.1357 17.22 53.6375 15.6956 54.5192 14.3017C55.0834 13.4111 55.6925 12.577 56.4481 11.8489C57.913 10.4376 59.6432 9.50203 61.5938 8.94215C63.2341 8.47074 64.9034 8.31699 66.535 8.36196ZM66.9643 19.1738C66.9687 19.1404 66.973 19.1071 66.9774 19.0723C67.862 19.1375 68.7119 18.9969 69.5197 18.6357C70.4856 18.2034 71.0426 17.2389 70.8149 16.3555C70.6002 15.5201 70.0708 14.9399 69.2514 14.6599C66.4509 13.7012 64.3697 16.0451 64.0825 18.0772C64.0187 18.5254 64.1275 18.6937 64.5974 18.7851C65.382 18.9374 66.1753 19.0462 66.9643 19.1738Z" fill="white"/>
<path d="M130.06 8.36347C132.402 8.28805 134.91 8.7667 137.397 9.37155C137.909 9.49629 138.396 9.72112 138.892 9.90823C139.226 10.0344 139.165 10.297 139.098 10.5566C138.782 11.8026 138.464 13.05 138.15 14.2974C138.099 14.5004 138.057 14.705 138.012 14.908C137.919 15.3345 137.829 15.3722 137.413 15.2489C136.505 14.9805 135.6 14.6919 134.678 14.4874C133.864 14.3061 133.031 14.2132 132.19 14.3641C131.587 14.4729 131.081 14.6745 130.873 15.3229C130.647 16.0336 130.873 16.6181 131.438 17.0272C132.138 17.5363 132.876 17.999 133.632 18.424C134.667 19.0071 135.767 19.4799 136.776 20.1007C138.144 20.9406 139.249 22.0748 139.883 23.5717C140.486 24.999 140.441 26.4843 140.064 27.9725C139.612 29.7609 138.412 30.9764 137 32.0396C135.423 33.2261 133.596 33.757 131.691 34.0558C128.431 34.5678 125.198 34.3415 122.057 33.3755C120.626 32.9345 119.278 32.2064 117.912 31.5696C117.423 31.3419 117.422 31.2128 117.655 30.7255C118.266 29.4505 118.881 28.1755 119.494 26.902C119.657 26.5641 119.842 26.5278 120.25 26.7193C120.962 27.0529 121.664 27.4155 122.396 27.6983C123.438 28.1001 124.509 28.2698 125.649 28.177C126.862 28.0798 127.546 26.5742 126.723 25.6053C126.363 25.1832 125.918 24.8119 125.451 24.5116C124.328 23.7922 123.123 23.1946 122.035 22.4287C120.337 21.235 118.968 19.728 118.643 17.5856C118.189 14.5947 119.19 11.746 122.064 10.0663C124.264 8.77976 127.306 8.28515 130.063 8.36057L130.06 8.36347Z" fill="white"/>
<path d="M95.4614 13.0427C95.7833 12.67 96.0864 12.2783 96.4316 11.9273C97.061 11.2862 97.6484 10.5755 98.3721 10.0606C99.7978 9.04812 101.352 8.3751 103.184 8.35624C104.414 8.34319 105.54 8.64489 106.653 9.03217C107.149 9.20477 107.551 9.63992 108.006 9.93726C109.737 11.0686 110.717 12.7671 111.535 14.5889C111.568 14.6615 111.605 14.7383 111.616 14.8152C111.806 16.2106 112.299 17.5537 112.227 18.9969C112.118 21.164 112.157 23.3397 111.988 25.4994C111.786 28.0755 111.431 30.6399 111.146 33.2102C111.11 33.5365 110.922 33.699 110.626 33.7512C110.453 33.7816 110.273 33.7758 110.096 33.7758C108.118 33.7758 106.14 33.7831 104.16 33.7729C103.567 33.77 102.974 33.712 102.381 33.6845C102.044 33.6685 101.901 33.4916 101.879 33.1637C101.837 32.5386 101.775 31.9149 101.721 31.2912C101.58 29.6594 101.435 28.0291 101.302 26.3973C101.194 25.0846 101.154 23.7647 100.986 22.4607C100.826 21.222 100.611 19.9804 100.287 18.7765C100.056 17.9207 99.5396 17.1273 98.7144 16.7298C98.2952 16.5268 97.6847 16.4992 97.2307 16.6327C96.1285 16.9576 95.4657 17.8235 95.2409 18.9099C94.9653 20.2414 94.7435 21.6005 94.6709 22.9553C94.5549 25.1049 94.597 27.2632 94.5433 29.4172C94.5114 30.6849 94.4186 31.9511 94.3635 33.2189C94.3475 33.6032 94.1604 33.7715 93.7891 33.7715C91.022 33.77 88.2562 33.7773 85.4891 33.7613C84.79 33.757 84.7131 33.6293 84.6928 32.923C84.6305 30.7705 84.5725 28.6165 84.4855 26.464C84.3738 23.7023 84.2389 20.942 84.104 18.1818C83.9923 15.8871 83.8604 13.5939 83.7487 11.2978C83.7197 10.7031 83.7356 10.1084 83.7298 9.51227C83.7269 9.21347 83.872 9.06553 84.1693 9.06698C84.2664 9.06698 84.3622 9.06263 84.4593 9.06263C87.869 9.06263 91.2801 9.06263 94.6898 9.06263C95.4367 9.06263 95.5034 9.17576 95.4541 9.9126C95.3845 10.9337 95.3671 11.9578 95.3279 12.9818C95.3714 13.0007 95.4164 13.0195 95.4599 13.0384L95.4614 13.0427Z" fill="black"/>
<path d="M167.453 44.7313H110.099V45.7931H167.453C167.746 45.7931 167.984 45.5552 167.984 45.2622C167.984 44.9692 167.746 44.7313 167.453 44.7313Z" fill="white"/>
<path d="M63.9419 44.7313H5.17846C4.88549 44.7313 4.64764 44.9692 4.64764 45.2622C4.64764 45.5552 4.88549 45.7931 5.17846 45.7931H63.9419V44.7313Z" fill="white"/>
<path d="M67.63 48.0079H71.891V48.9159H66.5858V41.6055H71.7445V42.5135H67.63V48.0064V48.0079ZM67.5357 44.7603H71.2949V45.6479H67.5357V44.7603Z" fill="white"/>
<path d="M75.7125 49C75.1556 49 74.6234 48.9145 74.1143 48.7448C73.6067 48.5736 73.2064 48.3531 72.9135 48.0819L73.2992 47.2667C73.5777 47.5104 73.933 47.712 74.3638 47.873C74.7959 48.0326 75.2441 48.1138 75.7111 48.1138C76.136 48.1138 76.4797 48.0645 76.7452 47.9673C77.0091 47.8701 77.2049 47.7352 77.3296 47.5655C77.4544 47.3944 77.5182 47.2014 77.5182 46.9853C77.5182 46.7344 77.4369 46.5328 77.2731 46.379C77.1092 46.2253 76.8974 46.102 76.6364 46.0077C76.3753 45.9134 76.0882 45.8322 75.7749 45.7626C75.4616 45.6929 75.1469 45.6117 74.8293 45.5174C74.5131 45.4232 74.2231 45.3028 73.962 45.1577C73.701 45.0112 73.4907 44.8154 73.3297 44.5674C73.1702 44.3208 73.0889 44.0017 73.0889 43.6115C73.0889 43.2213 73.1876 42.8892 73.3863 42.573C73.5849 42.2568 73.891 42.0015 74.3057 41.81C74.7191 41.6186 75.247 41.5228 75.888 41.5228C76.313 41.5228 76.7336 41.5779 77.1512 41.6896C77.5689 41.8013 77.9315 41.9609 78.2375 42.1697L77.8923 43.0052C77.5791 42.7963 77.2484 42.6455 76.9003 42.5512C76.5523 42.4569 76.2143 42.4105 75.888 42.4105C75.4776 42.4105 75.1397 42.4627 74.8757 42.5672C74.6103 42.6716 74.4174 42.8109 74.2956 42.9849C74.1738 43.159 74.1129 43.3533 74.1129 43.5695C74.1129 43.8276 74.1941 44.0322 74.358 44.1859C74.5218 44.3397 74.7336 44.4615 74.9946 44.5514C75.2557 44.6414 75.5429 44.724 75.8561 44.7966C76.1694 44.8691 76.4841 44.9518 76.8017 45.0417C77.1179 45.1316 77.4079 45.2506 77.669 45.3971C77.9301 45.5436 78.1404 45.7379 78.3013 45.9816C78.4609 46.2253 78.5421 46.5386 78.5421 46.9215C78.5421 47.3044 78.4406 47.6337 78.239 47.9499C78.0374 48.2675 77.7256 48.5214 77.305 48.7128C76.8844 48.9043 76.3536 49 75.7125 49Z" fill="white"/>
<path d="M80.0663 48.9173V41.6069H82.9176C83.5587 41.6069 84.104 41.7085 84.5565 41.9101C85.009 42.1117 85.3571 42.4047 85.6007 42.7876C85.8444 43.1705 85.9662 43.626 85.9662 44.1554C85.9662 44.6848 85.8444 45.1388 85.6007 45.5189C85.3571 45.8989 85.009 46.1904 84.5565 46.3964C84.104 46.6024 83.5572 46.7039 82.9176 46.7039H80.6407L81.1106 46.2136V48.9188H80.0663V48.9173ZM81.1106 46.3166L80.6407 45.7945H82.8857C83.5543 45.7945 84.0605 45.6523 84.4057 45.3666C84.7508 45.0808 84.922 44.6776 84.922 44.1554C84.922 43.6333 84.7494 43.23 84.4057 42.9443C84.0605 42.6585 83.5543 42.5164 82.8857 42.5164H80.6407L81.1106 41.9942V46.3181V46.3166Z" fill="white"/>
<path d="M90.9044 49C90.3475 49 89.8312 48.9058 89.3541 48.7187C88.8769 48.5301 88.465 48.2676 88.1169 47.9296C87.7689 47.5916 87.4977 47.1971 87.3019 46.7446C87.1075 46.292 87.0089 45.7974 87.0089 45.2622C87.0089 44.7269 87.1061 44.2323 87.3019 43.7798C87.4962 43.3272 87.7689 42.9327 88.1169 42.5947C88.465 42.2568 88.8755 41.9942 89.3497 41.8057C89.8225 41.6171 90.3417 41.5243 90.9059 41.5243C91.47 41.5243 91.9777 41.6171 92.4519 41.8013C92.9247 41.9855 93.3366 42.2466 93.6847 42.5846C94.0327 42.9226 94.3025 43.3185 94.4939 43.7754C94.6854 44.2309 94.7811 44.7269 94.7811 45.2636C94.7811 45.8003 94.6854 46.3051 94.4939 46.7576C94.3025 47.2102 94.0327 47.6047 93.6847 47.9427C93.3366 48.2806 92.9262 48.5417 92.4519 48.7259C91.9791 48.9101 91.4628 49.0029 90.9059 49.0029L90.9044 49ZM90.8943 48.0717C91.3047 48.0717 91.6832 48.0021 92.027 47.8629C92.3721 47.7236 92.6709 47.5264 92.9247 47.2725C93.1785 47.0187 93.3772 46.7213 93.5193 46.379C93.6615 46.0382 93.734 45.6654 93.734 45.2622C93.734 44.8589 93.6629 44.4876 93.5193 44.1497C93.3772 43.8117 93.1785 43.5143 92.9247 43.2562C92.6709 42.998 92.3707 42.8007 92.027 42.6615C91.6818 42.5222 91.3047 42.4526 90.8943 42.4526C90.4838 42.4526 90.1169 42.5222 89.7717 42.6615C89.4266 42.8007 89.1264 42.9994 88.8682 43.2562C88.61 43.5143 88.4099 43.8117 88.2678 44.1497C88.1256 44.4876 88.0531 44.8575 88.0531 45.2622C88.0531 45.6669 88.1242 46.0382 88.2678 46.379C88.4099 46.7199 88.61 47.0172 88.8682 47.2725C89.1249 47.5264 89.4266 47.7236 89.7717 47.8629C90.1169 48.0021 90.4911 48.0717 90.8943 48.0717Z" fill="white"/>
<path d="M96.3765 48.9173V41.6069H99.2278C99.8688 41.6069 100.414 41.7085 100.867 41.9101C101.319 42.1117 101.667 42.4047 101.911 42.7876C102.154 43.1705 102.276 43.626 102.276 44.1554C102.276 44.6848 102.154 45.1388 101.911 45.5189C101.667 45.8989 101.319 46.189 100.867 46.3906C100.414 46.5922 99.8673 46.6938 99.2278 46.6938H96.9508L97.4207 46.2136V48.9188H96.3765V48.9173ZM97.4207 46.3166L96.9508 45.8046H99.1959C99.8644 45.8046 100.371 45.6596 100.716 45.3709C101.061 45.0823 101.232 44.6761 101.232 44.154C101.232 43.6318 101.059 43.2286 100.716 42.9428C100.371 42.6571 99.8644 42.5149 99.1959 42.5149H96.9508L97.4207 41.9928V46.3166ZM101.264 48.9173L99.4047 46.2644H100.521L102.401 48.9173H101.263H101.264Z" fill="white"/>
<path d="M105.315 48.9173V42.5149H102.809V41.6069H108.855V42.5149H106.349V48.9173H105.315Z" fill="white"/>
</g>
<defs>
<clipPath id="clip0_489_115">
<rect width="170.763" height="49" fill="white" transform="translate(0.934875)"/>
</clipPath>
</defs>
</svg>
