<svg width="54" height="54" viewBox="0 0 54 54" fill="none" xmlns="http://www.w3.org/2000/svg">
<path d="M15.4286 34.7143H13.5V32.7857C13.5 31.7207 12.6365 30.8571 11.5714 30.8571C10.5064 30.8571 9.64285 31.7207 9.64285 32.7857V34.7143H7.71428C6.64923 34.7143 5.78571 35.5778 5.78571 36.6429C5.78571 37.7079 6.64923 38.5714 7.71428 38.5714H9.64285V40.5C9.64285 41.5651 10.5064 42.4286 11.5714 42.4286C12.6365 42.4286 13.5 41.5651 13.5 40.5V38.5714H15.4286C16.4936 38.5714 17.3571 37.7079 17.3571 36.6429C17.3571 35.5778 16.4936 34.7143 15.4286 34.7143Z" fill="#CD1D5B"/>
<path d="M42.4286 34.7143C43.4937 34.7143 44.3571 33.8508 44.3571 32.7857C44.3571 31.7206 43.4937 30.8571 42.4286 30.8571C41.3635 30.8571 40.5 31.7206 40.5 32.7857C40.5 33.8508 41.3635 34.7143 42.4286 34.7143Z" fill="#CD1D5B"/>
<path d="M42.4286 42.4286C43.4937 42.4286 44.3571 41.5651 44.3571 40.5C44.3571 39.4349 43.4937 38.5714 42.4286 38.5714C41.3635 38.5714 40.5 39.4349 40.5 40.5C40.5 41.5651 41.3635 42.4286 42.4286 42.4286Z" fill="#CD1D5B"/>
<path d="M46.2857 38.5714C47.3508 38.5714 48.2143 37.708 48.2143 36.6429C48.2143 35.5777 47.3508 34.7143 46.2857 34.7143C45.2206 34.7143 44.3571 35.5777 44.3571 36.6429C44.3571 37.708 45.2206 38.5714 46.2857 38.5714Z" fill="#CD1D5B"/>
<path d="M38.5714 38.5714C39.6365 38.5714 40.5 37.708 40.5 36.6429C40.5 35.5777 39.6365 34.7143 38.5714 34.7143C37.5063 34.7143 36.6429 35.5777 36.6429 36.6429C36.6429 37.708 37.5063 38.5714 38.5714 38.5714Z" fill="#CD1D5B"/>
<path d="M48.2143 26.4255V13.5C48.2143 12.435 47.3508 11.5714 46.2857 11.5714H44.3571V7.71429C44.3571 6.64924 43.4936 5.78571 42.4286 5.78571H31.5003L24.3002 0.386091C23.9659 0.135603 23.56 0 23.1429 0H9.64286C8.57781 0 7.71429 0.863525 7.71429 1.92857V25.4033C3.08508 26.9821 0 34.0615 0 40.5C0 48.0702 4.2357 54 9.64286 54C13.5885 54 17.0125 51.3266 17.9683 47.5014C18.4335 45.6501 20.0909 44.3571 21.9987 44.3571H32.0013C33.9091 44.3571 35.5665 45.6501 36.0308 47.4995C36.9875 51.3266 40.4115 54 44.3571 54C49.7643 54 54 48.0702 54 40.5C54 35.0034 51.752 29.037 48.2143 26.4255ZM37.8689 25.0714C36.5628 25.0714 35.3358 25.5799 34.412 26.5037L32.2894 28.6263C32.0945 28.8212 31.8356 28.9286 31.5596 28.9286H22.4404C22.1644 28.9286 21.9055 28.8212 21.7106 28.6263L19.588 26.5037C18.9624 25.8781 18.1914 25.4613 17.3571 25.2455V15.4286H44.3571V25.0714H37.8689ZM22.4997 3.85714L29.6998 9.25677C30.0341 9.50725 30.44 9.64286 30.8571 9.64286H40.5V11.5714H15.4286C14.3635 11.5714 13.5 12.435 13.5 13.5V25.0714H11.5714V3.85714H22.4997ZM44.3571 50.1429C42.1847 50.1429 40.2994 48.671 39.7721 46.5616C38.8765 42.9926 35.6814 40.5 32.0013 40.5H21.9987C18.3186 40.5 15.1235 42.9926 14.227 46.5635C13.7006 48.671 11.8153 50.1429 9.64286 50.1429C6.50705 50.1429 3.85714 45.7273 3.85714 40.5C3.85714 34.3772 7.09277 28.9286 9.64286 28.9286H16.1311C16.407 28.9286 16.6659 29.0359 16.8609 29.2309L18.9834 31.3534C19.9072 32.2772 21.1342 32.7857 22.4404 32.7857H31.5596C32.8658 32.7857 34.0928 32.2772 35.0166 31.3534L37.1391 29.2309C37.3341 29.0359 37.593 28.9286 37.8689 28.9286H44.3571C46.9072 28.9286 50.1429 34.3772 50.1429 40.5C50.1429 45.7273 47.493 50.1429 44.3571 50.1429Z" fill="#CD1D5B"/>
<path d="M34.7143 17.3571H27C25.935 17.3571 25.0714 18.2207 25.0714 19.2857C25.0714 20.3508 25.935 21.2143 27 21.2143H34.7143C35.7793 21.2143 36.6429 20.3508 36.6429 19.2857C36.6429 18.2207 35.7793 17.3571 34.7143 17.3571Z" fill="#CD1D5B"/>
</svg>
