<svg width="28" height="28" viewBox="0 0 28 28" fill="none" xmlns="http://www.w3.org/2000/svg">
<path d="M27.9098 8.03707C27.8941 6.89374 27.6737 5.76177 27.2583 4.69181C26.8982 3.7893 26.348 2.96967 25.6431 2.28527C24.9382 1.60087 24.094 1.06675 23.1644 0.717056C22.0765 0.320572 20.9272 0.106187 19.7654 0.0830276C18.2697 0.0181152 17.7954 0 13.9984 0C10.2015 0 9.7148 1.01226e-07 8.2299 0.0830276C7.06866 0.106357 5.91991 0.32074 4.83252 0.717056C3.9028 1.06651 3.05845 1.60054 2.35349 2.28497C1.64854 2.9694 1.0985 3.78916 0.738561 4.69181C0.329369 5.74721 0.109032 6.86277 0.0870724 7.99027C0.0202132 9.444 0 9.90443 0 13.5909C0 17.2773 -1.15846e-08 17.7483 0.0870724 19.1914C0.110395 20.3206 0.329631 21.4347 0.738561 22.4929C1.0991 23.3953 1.64955 24.2147 2.35474 24.8989C3.05994 25.583 3.90436 26.1168 4.83407 26.4662C5.91849 26.8786 7.06744 27.1083 8.23146 27.1455C9.72879 27.2104 10.203 27.23 14 27.23C17.797 27.23 18.2837 27.23 19.7686 27.1455C20.9303 27.1233 22.0796 26.9094 23.1675 26.513C24.0968 26.1629 24.9408 25.6286 25.6457 24.9443C26.3506 24.2599 26.9008 23.4405 27.2614 22.5382C27.6704 21.4815 27.8896 20.3674 27.9129 19.2367C27.9798 17.7845 28 17.3241 28 13.6361C27.9969 9.94972 27.9969 9.48174 27.9098 8.03707ZM13.9891 20.5621C10.018 20.5621 6.80098 17.4388 6.80098 13.5833C6.80098 9.72781 10.018 6.60446 13.9891 6.60446C15.8955 6.60446 17.7239 7.33973 19.0719 8.64852C20.4199 9.9573 21.1773 11.7324 21.1773 13.5833C21.1773 15.4342 20.4199 17.2093 19.0719 18.5181C17.7239 19.8269 15.8955 20.5621 13.9891 20.5621ZM21.4634 7.97366C21.2432 7.97386 21.0251 7.9319 20.8217 7.85019C20.6182 7.76848 20.4334 7.64862 20.2777 7.49747C20.122 7.34632 19.9985 7.16684 19.9144 6.96931C19.8302 6.77179 19.787 6.56008 19.7872 6.34632C19.7872 6.13272 19.8305 5.9212 19.9147 5.72386C19.9989 5.52651 20.1223 5.3472 20.2779 5.19615C20.4335 5.04511 20.6182 4.9253 20.8214 4.84355C21.0247 4.76181 21.2426 4.71974 21.4626 4.71974C21.6826 4.71974 21.9004 4.76181 22.1037 4.84355C22.307 4.9253 22.4917 5.04511 22.6472 5.19615C22.8028 5.3472 22.9262 5.52651 23.0104 5.72386C23.0946 5.9212 23.1379 6.13272 23.1379 6.34632C23.1379 7.24604 22.3885 7.97366 21.4634 7.97366Z" fill="white"/>
<path d="M13.9891 18.1169C16.5679 18.1169 18.6584 16.0873 18.6584 13.5836C18.6584 11.0799 16.5679 9.05029 13.9891 9.05029C11.4104 9.05029 9.31989 11.0799 9.31989 13.5836C9.31989 16.0873 11.4104 18.1169 13.9891 18.1169Z" fill="white"/>
</svg>
