<svg width="28" height="28" viewBox="0 0 28 28" fill="none" xmlns="http://www.w3.org/2000/svg">
<path d="M28 28H0V0H28V28ZM17.5163 10.493V19.04C17.5163 19.271 17.5163 19.313 17.3682 19.4623L15.8492 20.937V21.252H23.2225V20.937L21.756 19.4973C21.6498 19.4157 21.5833 19.2897 21.5833 19.1473C21.5833 19.1217 21.5857 19.0972 21.5892 19.0727V19.075V8.49333C21.5857 8.47117 21.5833 8.44667 21.5833 8.421C21.5833 8.27983 21.651 8.15383 21.756 8.07333L21.7572 8.07217L23.2575 6.6325V6.3175H18.0588L14.3535 15.5622L10.143 6.3175H4.68883V6.63367L6.44117 8.74883C6.58933 8.883 6.68267 9.07667 6.68267 9.2925C6.68267 9.31817 6.6815 9.34267 6.67917 9.36717V9.36367V17.6773C6.68733 17.7252 6.692 17.78 6.692 17.836C6.692 18.095 6.58933 18.3295 6.4225 18.5022L4.45083 20.8985V21.2135H10.0508V20.8985L8.078 18.5022C7.90417 18.3225 7.79683 18.0787 7.79683 17.808C7.79683 17.7613 7.80033 17.7158 7.80617 17.6715V17.6762V10.4895L12.7237 21.217H13.2953L17.5163 10.493Z" fill="white"/>
</svg>
