<svg width="48" height="54" viewBox="0 0 48 54" fill="none" xmlns="http://www.w3.org/2000/svg">
<g clip-path="url(#clip0_615_580)">
<path fill-rule="evenodd" clip-rule="evenodd" d="M35.2926 20.502C37.6884 22.182 39.9457 24.042 42.0526 26.064C43.6297 24.48 45.0262 22.716 46.2061 20.82C47.9638 17.886 48.4995 15.3 47.4521 13.5C46.0917 11.154 42.2813 10.446 37.2189 11.202C36.1414 11.364 35.0097 11.592 33.8359 11.88C34.5402 14.712 35.0278 17.592 35.2866 20.496L35.2926 20.502ZM25.571 14.748C27.8404 13.752 30.17 12.912 32.5537 12.228C33.1496 14.628 33.5831 17.058 33.8539 19.518C32.5597 18.654 31.2053 17.814 29.7967 16.998C28.3822 16.188 26.9736 15.438 25.577 14.754L25.571 14.748ZM15.7832 10.944C18.5943 11.754 21.3393 12.774 23.9999 13.998C26.6545 12.774 29.3995 11.748 32.2106 10.944C31.8795 9.78 31.5063 8.688 31.109 7.68C29.2369 2.934 26.7147 0 23.9999 0C21.9111 0 19.9307 1.752 18.2633 4.734C17.2038 6.702 16.3731 8.79 15.7832 10.944ZM23.9939 40.002C21.3393 41.226 18.5943 42.252 15.7832 43.056C16.1143 44.22 16.4875 45.312 16.8848 46.32C18.7629 51.066 21.2791 54 23.9939 54C26.0827 54 28.0631 52.248 29.7245 49.266C30.784 47.298 31.6147 45.21 32.2046 43.056C29.3934 42.246 26.6485 41.226 23.9879 40.002H23.9939ZM14.1399 34.488C15.4341 35.352 16.7885 36.192 18.1971 37.008C19.6116 37.818 21.0202 38.568 22.4168 39.252C20.1474 40.248 17.8178 41.088 15.4341 41.772C14.8381 39.378 14.3987 36.942 14.1338 34.482L14.1399 34.488ZM5.94122 27.936C4.36409 29.526 2.96755 31.284 1.78772 33.18C0.0239882 36.114 -0.505733 38.7 0.535651 40.5C1.89607 42.846 5.70646 43.554 10.7689 42.798C11.8464 42.636 12.9781 42.408 14.1519 42.12C13.4476 39.288 12.96 36.408 12.6952 33.504C10.3054 31.824 8.04205 29.964 5.9352 27.942L5.94122 27.936ZM15.0247 19.182C14.0917 18.252 12.5808 18.252 11.6478 19.182C10.7147 20.112 10.7147 21.618 11.6478 22.548C12.5808 23.478 14.0917 23.478 15.0247 22.548C15.4762 22.098 15.723 21.492 15.723 20.862C15.723 20.232 15.4702 19.626 15.0247 19.182ZM10.799 23.58C11.2625 24.012 11.8284 24.318 12.4423 24.468C12.4303 24.786 12.4243 25.104 12.4123 25.434C12.4002 26.028 12.3942 26.55 12.3942 27C12.3942 28.626 12.4484 30.216 12.5567 31.764C10.5582 30.306 8.66206 28.71 6.88027 26.994C8.06011 25.848 9.37237 24.702 10.799 23.574V23.58ZM13.0985 17.166C11.0458 17.292 9.48674 19.056 9.61917 21.102C9.64927 21.594 9.7817 22.074 9.99841 22.518C8.58381 23.634 7.22941 24.816 5.9352 26.064C5.09246 25.194 4.32798 24.336 3.64777 23.484C0.469436 19.488 -0.82477 15.846 0.535651 13.5C1.89607 11.154 5.70646 10.452 10.7689 11.202C11.8464 11.364 12.9781 11.592 14.1519 11.88C13.7125 13.62 13.3633 15.384 13.0985 17.16V17.166ZM16.018 18.3L15.9638 18.246C15.5364 17.82 15.0067 17.502 14.4228 17.322C14.6937 15.522 15.0308 13.818 15.4341 12.228C17.8178 12.912 20.1474 13.752 22.4168 14.748C21.0202 15.432 19.6056 16.182 18.1971 16.992C17.7456 17.256 17.2941 17.52 16.8426 17.79C16.5597 17.958 16.2888 18.132 16.0119 18.3H16.018ZM36.346 31.452C35.413 30.522 33.9021 30.522 32.9691 31.452C32.036 32.382 32.036 33.888 32.9691 34.818C33.9021 35.748 35.413 35.748 36.346 34.818C36.7915 34.374 37.0443 33.768 37.0443 33.132C37.0443 32.502 36.7915 31.896 36.346 31.452ZM31.9758 35.7L32.03 35.754C32.4574 36.18 32.9871 36.498 33.571 36.678C33.3001 38.478 32.963 40.182 32.5597 41.772C30.176 41.094 27.8464 40.248 25.577 39.252C26.9736 38.568 28.3882 37.818 29.7967 37.008C30.2482 36.744 30.6997 36.48 31.1512 36.21C31.4341 36.042 31.705 35.868 31.9819 35.7H31.9758ZM34.2211 29.454C32.1805 29.694 30.7238 31.542 30.9645 33.576C31.0067 33.93 31.097 34.272 31.2414 34.602C30.9826 34.764 30.7177 34.926 30.4589 35.082C30.0255 35.346 29.5861 35.604 29.1346 35.862H29.1286C27.407 36.858 25.6914 37.752 23.9939 38.544C22.2964 37.752 20.5808 36.858 18.8592 35.868C17.1376 34.878 15.5123 33.846 13.9713 32.778C13.8148 30.918 13.7305 28.986 13.7305 27.006C13.7305 26.412 13.7305 25.902 13.7426 25.464C13.7486 25.164 13.7606 24.858 13.7667 24.552C15.8073 24.312 17.264 22.464 17.0232 20.43C16.9811 20.076 16.8908 19.734 16.7463 19.404C17.0052 19.242 17.27 19.08 17.5289 18.924C17.9623 18.66 18.4017 18.402 18.8532 18.144H18.8592C20.5808 17.148 22.2964 16.254 23.9939 15.462C25.6914 16.254 27.407 17.148 29.1286 18.138C30.8502 19.128 32.4755 20.16 34.0165 21.228C34.173 23.088 34.2572 25.02 34.2572 27C34.2572 27.594 34.2572 28.104 34.2452 28.542C34.2392 28.842 34.2271 29.148 34.2211 29.454ZM37.1948 30.42C36.7313 29.988 36.1655 29.682 35.5515 29.532C35.5635 29.214 35.5695 28.896 35.5816 28.566C35.5936 27.972 35.5996 27.45 35.5996 27C35.5996 25.374 35.5454 23.784 35.4371 22.236C37.4356 23.694 39.3317 25.29 41.1195 27.006C39.9397 28.152 38.6274 29.298 37.2008 30.426L37.1948 30.42ZM34.8893 36.834C36.942 36.708 38.501 34.944 38.3686 32.904C38.3385 32.412 38.2061 31.926 37.9894 31.488C39.404 30.372 40.7584 29.19 42.0526 27.942C42.8953 28.812 43.6598 29.67 44.34 30.522C47.5244 34.518 48.8186 38.16 47.4581 40.506C46.0977 42.852 42.2873 43.554 37.2249 42.798C36.1474 42.636 35.0157 42.408 33.8419 42.12C34.2813 40.38 34.6305 38.616 34.8893 36.84V36.834Z" fill="url(#paint0_linear_615_580)"/>
</g>
<defs>
<linearGradient id="paint0_linear_615_580" x1="5.37098e-08" y1="47" x2="55" y2="13" gradientUnits="userSpaceOnUse">
<stop stop-color="#CD1D5B"/>
<stop offset="1" stop-color="#E03F3F"/>
</linearGradient>
<clipPath id="clip0_615_580">
<rect width="48" height="54" fill="white"/>
</clipPath>
</defs>
</svg>
