<svg width="50" height="50" viewBox="0 0 50 50" fill="none" xmlns="http://www.w3.org/2000/svg">
<g clip-path="url(#clip0_615_577)">
<path d="M32.0078 20.0781L25.7578 16.6094C25.2813 16.3437 24.7188 16.3437 24.2422 16.6094L17.9922 20.0781C17.5 20.3516 17.1875 20.875 17.1875 21.4453V28.3359C17.1875 28.9062 17.4922 29.4297 17.9922 29.7031L24.2422 33.1719C24.4766 33.3047 24.7422 33.3672 25 33.3672C25.2578 33.3672 25.5234 33.3047 25.7578 33.1719L32.0078 29.7031C32.5078 29.4297 32.8125 28.9062 32.8125 28.3359V21.4453C32.8125 20.875 32.5078 20.3516 32.0078 20.0781ZM30.4688 26.4531C30.4688 26.8828 30.1172 27.2344 29.6875 27.2344C29.2578 27.2344 28.9062 26.8828 28.9062 26.4531V23.3281C28.9062 22.8984 29.2578 22.5469 29.6875 22.5469C30.1172 22.5469 30.4688 22.8984 30.4688 23.3281V26.4531Z" fill="url(#paint0_linear_615_577)"/>
<path d="M42.5156 28.9922L44.9219 30.3672C45.0391 30.4375 45.1719 30.4688 45.3125 30.4688C45.4219 30.4688 45.5312 30.4453 45.6328 30.3984C45.8594 30.2969 46.0234 30.0938 46.0781 29.8516L47.9609 21.0625C49.1094 20.9141 50 19.9375 50 18.75C50 17.4609 48.9453 16.4062 47.6562 16.4062C46.3672 16.4062 45.3125 17.4531 45.3125 18.75C45.3125 19.5938 45.7656 20.3281 46.4297 20.7422L44.7734 28.4844L42.8125 27.3672C42.9141 26.5938 42.9688 25.8125 42.9688 25.0078C42.9688 18.6016 39.5938 12.9688 34.5391 9.78906L38.4609 6.35938L42.9766 7.86719C43 9.14062 44.0391 10.1641 45.3125 10.1641C46.5859 10.1641 47.6562 9.10938 47.6562 7.82031C47.6562 6.53125 46.6016 5.47656 45.3125 5.47656C44.5625 5.47656 43.9063 5.83594 43.4766 6.38281L38.5312 4.73438C38.2656 4.64844 37.9766 4.70312 37.7734 4.89062L33.1016 8.97656C30.8828 7.85156 28.4062 7.17188 25.7891 7.0625V3.91406C25.7891 3.57812 25.5703 3.28125 25.2578 3.17187L22.6641 2.30469C22.6406 1.03125 21.6016 0.0078125 20.3281 0.0078125C19.0547 0.0078125 17.9844 1.0625 17.9844 2.35156C17.9844 3.64062 19.0391 4.69531 20.3281 4.69531C21.0781 4.69531 21.7344 4.33594 22.1641 3.78906L24.2344 4.47656V7.05469C20.6797 7.21094 17.3828 8.39844 14.6562 10.3359L13.2188 7.46094C13.0391 7.10156 12.6094 6.9375 12.2266 7.08594L6.45313 9.39844C6.02344 8.91406 5.39844 8.59375 4.70312 8.59375C3.41406 8.59375 2.35938 9.64844 2.35938 10.9375C2.35938 12.2266 3.41406 13.2812 4.70312 13.2812C5.99219 13.2812 7.04688 12.2266 7.04688 10.9375C7.04688 10.9062 7.04688 10.875 7.03906 10.8438L12.1406 8.80469L13.3984 11.3125C9.53906 14.5937 7.07812 19.4766 7.05469 24.9219L5.71875 26.5938L3.90625 22.0703C4.39062 21.6406 4.71094 21.0156 4.71094 20.3203C4.71094 19.0312 3.65625 17.9766 2.36719 17.9766C1.07812 17.9766 0.0234375 19.0312 0.0234375 20.3203C0.0234375 21.6094 1.07812 22.6641 2.36719 22.6641C2.39844 22.6641 2.42969 22.6562 2.46094 22.6562L4.76562 28.4219C4.86719 28.6797 5.10156 28.8672 5.375 28.9063C5.41406 28.9063 5.45312 28.9141 5.49219 28.9141C5.72656 28.9141 5.95312 28.8047 6.10156 28.6172L7.19531 27.2422C7.57813 30.3203 8.74219 33.1562 10.4844 35.5469L7.16406 39.2422C6.89063 39.125 6.58594 39.0625 6.26562 39.0625C4.97656 39.0625 3.92187 40.1172 3.92187 41.4062C3.92187 42.6953 4.97656 43.75 6.26562 43.75C7.55469 43.75 8.60938 42.6953 8.60938 41.4062C8.60938 41 8.5 40.625 8.3125 40.2969L11.4688 36.7891C13.4609 39.0781 16.0234 40.8594 18.9297 41.9062L17.4688 43.1563C17.2734 43.3203 17.1719 43.5703 17.2031 43.8281C17.2266 44.0859 17.375 44.3047 17.6016 44.4297L22.7109 47.2656C22.6875 47.3906 22.6719 47.5156 22.6719 47.6484C22.6719 48.9375 23.7266 49.9922 25.0156 49.9922C26.3047 49.9922 27.3594 48.9375 27.3594 47.6484C27.3594 46.3594 26.3047 45.3047 25.0156 45.3047C24.4219 45.3047 23.8828 45.5312 23.4688 45.8984L19.3438 43.6016L20.7031 42.4297C22.0859 42.7734 23.5234 42.9531 25.0078 42.9531C28.6094 42.9531 31.9609 41.8828 34.7734 40.0547L37.6953 43.4609C37.8438 43.6406 38.0625 43.7344 38.2891 43.7344C38.3594 43.7344 38.4297 43.7266 38.4922 43.7109L44.9609 41.9531C45.3828 42.5625 46.0859 42.9609 46.8828 42.9609C48.1719 42.9609 49.2266 41.9063 49.2266 40.6172C49.2266 39.3281 48.1719 38.2734 46.8828 38.2734C45.5938 38.2734 44.6484 39.2344 44.5547 40.4453L38.5625 42.0781L36.0547 39.1484C39.2578 36.6406 41.5938 33.0781 42.5234 28.9844L42.5156 28.9922ZM25 37.5C18.1094 37.5 12.5 31.8906 12.5 25C12.5 18.1094 18.1094 12.5 25 12.5C31.8906 12.5 37.5 18.1094 37.5 25C37.5 31.8906 31.8906 37.5 25 37.5Z" fill="url(#paint1_linear_615_577)"/>
</g>
<defs>
<linearGradient id="paint0_linear_615_577" x1="25" y1="16.4102" x2="25" y2="33.3672" gradientUnits="userSpaceOnUse">
<stop stop-color="#CD1D5B"/>
<stop offset="1" stop-color="#E03F3F"/>
</linearGradient>
<linearGradient id="paint1_linear_615_577" x1="-5.91109e-07" y1="45.5" x2="58.5" y2="10.5" gradientUnits="userSpaceOnUse">
<stop stop-color="#CD1D5B"/>
<stop offset="1" stop-color="#E03F3F"/>
</linearGradient>
<clipPath id="clip0_615_577">
<rect width="50" height="50" fill="white"/>
</clipPath>
</defs>
</svg>
