<svg width="48" height="48" viewBox="0 0 48 48" fill="none" xmlns="http://www.w3.org/2000/svg">
<g clip-path="url(#clip0_615_570)">
<path d="M39.4313 24H33.6713C32.5056 24 31.4256 24.4457 30.6028 25.2686L28.717 27.1543C28.5456 27.3257 28.3056 27.4286 28.0656 27.4286H19.957C19.717 27.4286 19.477 27.3257 19.3056 27.1543L17.4199 25.2686C16.597 24.4457 15.4999 24 14.3513 24H8.59133C3.53418 24 0.0198975 29.52 0.0198975 36C0.0198975 42.48 3.79133 48 8.59133 48C12.1056 48 15.1399 44.5371 15.997 41.1429C16.4085 39.4971 17.8828 37.7143 19.5799 37.7143H28.477C30.1742 37.7143 31.6485 39.4971 32.0599 41.1429C32.917 44.5371 35.9513 48 39.4656 48C44.2656 48 48.037 42.7371 48.037 36C48.037 29.2629 44.5228 24 39.4656 24H39.4313ZM12.8599 34.2857H10.2885V36.8571C10.2885 37.3371 9.91133 37.7143 9.43133 37.7143C8.95133 37.7143 8.57418 37.3371 8.57418 36.8571V34.2857H6.00276C5.52276 34.2857 5.14561 33.9086 5.14561 33.4286C5.14561 32.9486 5.52276 32.5714 6.00276 32.5714H8.57418V30C8.57418 29.52 8.95133 29.1429 9.43133 29.1429C9.91133 29.1429 10.2885 29.52 10.2885 30V32.5714H12.8599C13.3399 32.5714 13.717 32.9486 13.717 33.4286C13.717 33.9086 13.3399 34.2857 12.8599 34.2857ZM37.717 27.4286C38.6599 27.4286 39.4313 28.2 39.4313 29.1429C39.4313 30.0857 38.6599 30.8571 37.717 30.8571C36.7742 30.8571 36.0028 30.0857 36.0028 29.1429C36.0028 28.2 36.7742 27.4286 37.717 27.4286ZM34.2885 34.2857C33.3456 34.2857 32.5742 33.5143 32.5742 32.5714C32.5742 31.6286 33.3456 30.8571 34.2885 30.8571C35.2313 30.8571 36.0028 31.6286 36.0028 32.5714C36.0028 33.5143 35.2313 34.2857 34.2885 34.2857ZM37.717 37.7143C36.7742 37.7143 36.0028 36.9429 36.0028 36C36.0028 35.0571 36.7742 34.2857 37.717 34.2857C38.6599 34.2857 39.4313 35.0571 39.4313 36C39.4313 36.9429 38.6599 37.7143 37.717 37.7143ZM41.1456 34.2857C40.2028 34.2857 39.4313 33.5143 39.4313 32.5714C39.4313 31.6286 40.2028 30.8571 41.1456 30.8571C42.0885 30.8571 42.8599 31.6286 42.8599 32.5714C42.8599 33.5143 42.0885 34.2857 41.1456 34.2857Z" fill="url(#paint0_linear_615_570)"/>
<path d="M35.8313 6.08569L24.7742 0.188545C24.2942 -0.0514551 23.7285 -0.0514551 23.2485 0.188545L12.1742 6.08569L24.0028 12L35.8313 6.08569Z" fill="url(#paint1_linear_615_570)"/>
<path d="M12.9456 20.3829L23.1456 25.7143V13.2857L12.0027 7.71429V18.8572C12.0027 19.5086 12.3627 20.1086 12.9456 20.3829Z" fill="url(#paint2_linear_615_570)"/>
<path d="M24.8599 25.7143L35.0599 20.3829C35.6427 20.0914 36.0027 19.4914 36.0027 18.8572V7.71429L24.8599 13.2857V25.7143Z" fill="url(#paint3_linear_615_570)"/>
</g>
<defs>
<linearGradient id="paint0_linear_615_570" x1="3.50281" y1="45.5" x2="61.0028" y2="29" gradientUnits="userSpaceOnUse">
<stop stop-color="#cc0022"/>
<stop offset="1" stop-color="#E03F3F"/>
</linearGradient>
<linearGradient id="paint1_linear_615_570" x1="24.0028" y1="0.00854492" x2="24.0028" y2="12" gradientUnits="userSpaceOnUse">
<stop stop-color="#cc0022"/>
<stop offset="1" stop-color="#E03F3F"/>
</linearGradient>
<linearGradient id="paint2_linear_615_570" x1="17.5742" y1="7.71429" x2="17.5742" y2="25.7143" gradientUnits="userSpaceOnUse">
<stop stop-color="#cc0022"/>
<stop offset="1" stop-color="#E03F3F"/>
</linearGradient>
<linearGradient id="paint3_linear_615_570" x1="30.4313" y1="7.71429" x2="30.4313" y2="25.7143" gradientUnits="userSpaceOnUse">
<stop stop-color="#cc0022"/>
<stop offset="1" stop-color="#E03F3F"/>
</linearGradient>
<clipPath id="clip0_615_570">
<rect width="48" height="48" fill="white" transform="translate(0.00274658)"/>
</clipPath>
</defs>
</svg>
