<svg width="52" height="52" viewBox="0 0 52 52" fill="none" xmlns="http://www.w3.org/2000/svg">
<g clip-path="url(#clip0_615_559)">
<path d="M18.6956 23.547C19.3294 24.3708 20.5034 24.5217 21.3241 23.8855C22.1447 23.2493 22.295 22.0707 21.6612 21.247C21.6531 21.2347 21.6409 21.2225 21.6328 21.2103L19.6828 18.7593L21.6328 16.3043C22.2747 15.4968 22.1447 14.3182 21.3444 13.6698C20.5319 13.0296 19.3578 13.156 18.7037 13.9594L15.8234 17.5848C15.275 18.2699 15.275 19.2446 15.8234 19.9297L18.6956 23.547Z" fill="url(#paint0_linear_615_559)"/>
<path d="M30.6435 23.8447C31.4519 24.4891 32.63 24.3627 33.2841 23.5593L36.1766 19.9338C36.725 19.2487 36.725 18.27 36.1725 17.5848L33.2922 13.9675C32.6544 13.1478 31.4763 13.0051 30.6638 13.6413C29.8472 14.2816 29.705 15.4642 30.3388 16.2798C30.3469 16.288 30.351 16.2961 30.3591 16.3043L32.3132 18.7552L30.3591 21.2062C29.7213 22.0137 29.8513 23.1882 30.6435 23.8407V23.8447Z" fill="url(#paint1_linear_615_559)"/>
<path d="M25.1347 24.2648C26.0203 24.2729 26.7963 23.6694 27.0035 22.8048L28.661 15.5376C28.8844 14.5221 28.2425 13.5189 27.231 13.2987C26.2275 13.0785 25.2322 13.7106 25.0047 14.7138L23.3554 21.9484C23.136 22.9842 23.79 24.0038 24.8219 24.224C24.9235 24.2444 25.0291 24.2607 25.1347 24.2648Z" fill="url(#paint2_linear_615_559)"/>
<path d="M46.5156 0H5.48438C2.45781 0.00407811 0.0040625 2.46726 0 5.50545V40.985C0.01625 44.0518 2.50656 46.5231 5.56156 46.5068C5.6875 46.5068 5.81344 46.5027 5.94344 46.4905C8.78312 51.6493 15.2506 53.5171 20.3897 50.6705C20.7919 50.4462 21.1819 50.1975 21.5516 49.9202C24.1719 47.8933 27.8281 47.8933 30.4484 49.9202C35.1731 53.4151 41.8234 52.4037 45.305 47.6609C45.5812 47.2857 45.8291 46.8942 46.0525 46.4905C49.0994 46.7188 51.7562 44.4269 51.9837 41.3684C51.9919 41.2419 52 41.1114 52 40.985V5.50545C51.9959 2.46726 49.5422 0.00407811 46.5156 0ZM38.7969 5.09764H45.2969C45.9712 5.09764 46.5156 5.64411 46.5156 6.32107C46.5156 6.99804 45.9712 7.54451 45.2969 7.54451H38.7969C38.1225 7.54451 37.5781 6.99804 37.5781 6.32107C37.5781 5.64411 38.1225 5.09764 38.7969 5.09764ZM19.2969 5.09764C19.9713 5.09764 20.5156 5.64411 20.5156 6.32107C20.5156 6.99804 19.9713 7.54451 19.2969 7.54451C18.6225 7.54451 18.0781 6.99804 18.0781 6.32107C18.0781 5.64411 18.6225 5.09764 19.2969 5.09764ZM12.7969 5.09764C13.4712 5.09764 14.0156 5.64411 14.0156 6.32107C14.0156 6.99804 13.4712 7.54451 12.7969 7.54451C12.1225 7.54451 11.5781 6.99804 11.5781 6.32107C11.5781 5.64411 12.1225 5.09764 12.7969 5.09764ZM6.29688 5.09764C6.97125 5.09764 7.51562 5.64411 7.51562 6.32107C7.51562 6.99804 6.97125 7.54451 6.29688 7.54451C5.6225 7.54451 5.07812 6.99804 5.07812 6.32107C5.07812 5.64411 5.6225 5.09764 6.29688 5.09764ZM20.1094 41.8006C20.1094 42.4776 19.565 43.0241 18.8906 43.0241H16.8594V45.0631C16.8594 45.7401 16.315 46.2866 15.6406 46.2866H14.4219C13.7475 46.2866 13.2031 45.7401 13.2031 45.0631V43.0241H11.1719C10.4975 43.0241 9.95312 42.4776 9.95312 41.8006V40.5772C9.95312 39.9002 10.4975 39.3538 11.1719 39.3538H13.2031V37.3147C13.2031 36.6378 13.7475 36.0913 14.4219 36.0913H15.6406C16.315 36.0913 16.8594 36.6378 16.8594 37.3147V39.3538H18.8906C19.565 39.3538 20.1094 39.9002 20.1094 40.5772V41.8006ZM32.9062 43.0241C32.0084 43.0241 31.2812 42.2941 31.2812 41.3928C31.2812 40.4916 32.0084 39.7616 32.9062 39.7616C33.8041 39.7616 34.5312 40.4916 34.5312 41.3928C34.5312 42.2941 33.8041 43.0241 32.9062 43.0241ZM36.9688 47.3061C36.0709 47.3061 35.3438 46.5761 35.3438 45.6749C35.3438 44.7736 36.0709 44.0436 36.9688 44.0436C37.8666 44.0436 38.5938 44.7736 38.5938 45.6749C38.5938 46.5761 37.8666 47.3061 36.9688 47.3061ZM36.9688 38.7421C36.0709 38.7421 35.3438 38.0121 35.3438 37.1108C35.3438 36.2096 36.0709 35.4796 36.9688 35.4796C37.8666 35.4796 38.5938 36.2096 38.5938 37.1108C38.5938 38.0121 37.8666 38.7421 36.9688 38.7421ZM41.0312 43.0241C40.1334 43.0241 39.4062 42.2941 39.4062 41.3928C39.4062 40.4916 40.1334 39.7616 41.0312 39.7616C41.9291 39.7616 42.6562 40.4916 42.6562 41.3928C42.6562 42.2941 41.9291 43.0241 41.0312 43.0241ZM50.7812 40.985C50.7812 43.2973 48.945 45.1896 46.6416 45.2589C46.9625 44.4392 47.1819 43.5869 47.2956 42.7141C47.6978 39.5944 46.7513 36.4502 44.6916 34.0767C42.8878 31.9438 40.2513 30.7 37.4644 30.6715C35.3559 30.6592 32.5041 30.6511 29.4531 30.647V29.5663C29.4531 28.5549 28.6325 27.7312 27.625 27.7312H26.6094V26.0999C26.6094 25.7614 26.3372 25.4882 26 25.4882C25.6628 25.4882 25.3906 25.7614 25.3906 26.0999V27.7312H24.375C23.3675 27.7312 22.5469 28.5549 22.5469 29.5663V30.647C19.4959 30.6511 16.6441 30.6592 14.5356 30.6715C11.7487 30.7 9.11219 31.9438 7.30844 34.0767C5.24875 36.4502 4.30219 39.5944 4.70437 42.7141C4.81812 43.5869 5.0375 44.4392 5.35844 45.2589C3.055 45.1896 1.22281 43.2973 1.21875 40.985V12.2343H50.7812V40.985Z" fill="url(#paint3_linear_615_559)"/>
</g>
<defs>
<linearGradient id="paint0_linear_615_559" x1="18.7327" y1="13.262" x2="18.7327" y2="24.279" gradientUnits="userSpaceOnUse">
<stop stop-color="#CD1D5B"/>
<stop offset="1" stop-color="#E03F3F"/>
</linearGradient>
<linearGradient id="paint1_linear_615_559" x1="33.2654" y1="13.2444" x2="33.2654" y2="24.2558" gradientUnits="userSpaceOnUse">
<stop stop-color="#CD1D5B"/>
<stop offset="1" stop-color="#E03F3F"/>
</linearGradient>
<linearGradient id="paint2_linear_615_559" x1="26.0092" y1="13.2549" x2="26.0092" y2="24.2648" gradientUnits="userSpaceOnUse">
<stop stop-color="#CD1D5B"/>
<stop offset="1" stop-color="#E03F3F"/>
</linearGradient>
<linearGradient id="paint3_linear_615_559" x1="3.19891e-07" y1="36.5" x2="72" y2="9.5" gradientUnits="userSpaceOnUse">
<stop stop-color="#CD1D5B"/>
<stop offset="1" stop-color="#E03F3F"/>
</linearGradient>
<clipPath id="clip0_615_559">
<rect width="52" height="52" fill="white"/>
</clipPath>
</defs>
</svg>
