<svg width="34" height="50" viewBox="0 0 34 50" fill="none" xmlns="http://www.w3.org/2000/svg">
<g clip-path="url(#clip0_615_556)">
<path fill-rule="evenodd" clip-rule="evenodd" d="M34 3.6875C34 1.65625 32.3618 0 30.3527 0H3.64727C1.63818 0 0 1.65625 0 3.6875V46.3125C0 48.3438 1.63818 50 3.64727 50H30.3527C32.3618 50 34 48.3438 34 46.3125V3.6875ZM11.5909 35.1562V32.8125C11.5909 31.9531 10.8955 31.25 10.0455 31.25C9.19545 31.25 8.5 31.9531 8.5 32.8125V35.1562H6.18182C5.33182 35.1562 4.63636 35.8594 4.63636 36.7188C4.63636 37.5781 5.33182 38.2812 6.18182 38.2812H8.5V40.625C8.5 41.4844 9.19545 42.1875 10.0455 42.1875C10.8955 42.1875 11.5909 41.4844 11.5909 40.625V38.2812H13.9091C14.7591 38.2812 15.4545 37.5781 15.4545 36.7188C15.4545 35.8594 14.7591 35.1562 13.9091 35.1562H11.5909ZM23.9545 38.5469C24.9436 38.5469 25.7627 39.3594 25.7627 40.375C25.7627 41.3906 24.9591 42.2031 23.9545 42.2031C22.95 42.2031 22.1464 41.3906 22.1464 40.375C22.1464 39.3594 22.95 38.5469 23.9545 38.5469ZM22.1464 36.7188C22.1464 37.7188 21.3427 38.5469 20.3382 38.5469C19.3336 38.5469 18.53 37.7344 18.53 36.7188C18.53 35.7031 19.3336 34.8906 20.3382 34.8906C21.3427 34.8906 22.1464 35.7031 22.1464 36.7188ZM29.3636 36.7188C29.3636 37.7188 28.56 38.5469 27.5555 38.5469C26.5509 38.5469 25.7473 37.7344 25.7473 36.7188C25.7473 35.7031 26.5509 34.8906 27.5555 34.8906C28.56 34.8906 29.3636 35.7031 29.3636 36.7188ZM23.9545 31.25C24.9436 31.25 25.7627 32.0625 25.7627 33.0781C25.7627 34.0938 24.9591 34.9062 23.9545 34.9062C22.95 34.9062 22.1464 34.0938 22.1464 33.0781C22.1464 32.0625 22.95 31.25 23.9545 31.25ZM29.3482 4.35938H4.65182V25.7656H29.3636V4.35938H29.3482Z" fill="url(#paint0_linear_615_556)"/>
</g>
<defs>
<linearGradient id="paint0_linear_615_556" x1="-14.5" y1="50" x2="52.5" y2="6.5" gradientUnits="userSpaceOnUse">
<stop stop-color="#CD1D5B"/>
<stop offset="1" stop-color="#E03F3F"/>
</linearGradient>
<clipPath id="clip0_615_556">
<rect width="34" height="50" fill="white"/>
</clipPath>
</defs>
</svg>
