<svg width="72" height="38" viewBox="0 0 72 38" fill="none" xmlns="http://www.w3.org/2000/svg">
<g clip-path="url(#clip0_615_553)">
<path d="M68.6306 13.9706H66.3806C66.33 13.9706 66.2794 13.9762 66.2288 13.9818C65.6044 10.3215 63.0056 7.29823 59.4675 6.11353L53.2181 2.50912C50.4562 0.866176 47.295 0 44.0719 0H27.9394C24.7106 0 21.5437 0.871765 18.7762 2.52029C18.7481 2.53706 18.72 2.55382 18.6919 2.57059L13.7981 5.77824C9.66938 6.59412 6.48 9.85765 5.77688 13.9818C5.72625 13.9818 5.67562 13.9706 5.625 13.9706H3.375C1.51313 13.9706 0 15.4738 0 17.3235V26.2647C0 28.1144 1.51313 29.6176 3.375 29.6176H5.625C5.67562 29.6176 5.72625 29.6121 5.77688 29.6065C6.59813 34.4459 10.8113 37.9888 15.75 38H29.6494C30.6056 38 31.455 37.4021 31.77 36.5079L32.8275 33.5294H39.1669L40.2244 36.5079C40.5394 37.4021 41.3944 38 42.345 38H56.2444C61.1831 37.9888 65.3962 34.4459 66.2175 29.6065C66.2681 29.6065 66.3187 29.6176 66.3694 29.6176H68.6194C70.4813 29.6176 71.9944 28.1144 71.9944 26.2647V17.3235C71.9944 15.4738 70.4813 13.9706 68.6194 13.9706H68.6306ZM5.63063 27.3824H3.38063C2.76188 27.3824 2.25563 26.8794 2.25563 26.2647V17.3235C2.25563 16.7088 2.76188 16.2059 3.38063 16.2059H5.63063V27.3824ZM18.18 5.58824L19.935 4.43706C22.3538 2.99529 25.1212 2.23529 27.9394 2.23529H44.0719C46.89 2.23529 49.6575 2.99529 52.0763 4.43706L54.0731 5.58824H18.1856H18.18ZM69.7556 26.2647C69.7556 26.8794 69.2494 27.3824 68.6306 27.3824H66.3806V16.2059H68.6306C69.2494 16.2059 69.7556 16.7088 69.7556 17.3235V26.2647Z" fill="url(#paint0_linear_615_553)"/>
</g>
<defs>
<linearGradient id="paint0_linear_615_553" x1="9.73989e-07" y1="38" x2="85" y2="3.5" gradientUnits="userSpaceOnUse">
<stop stop-color="#CD1D5B"/>
<stop offset="1" stop-color="#E03F3F"/>
</linearGradient>
<clipPath id="clip0_615_553">
<rect width="72" height="38" fill="white"/>
</clipPath>
</defs>
</svg>
