<svg width="51" height="44" viewBox="0 0 51 44" fill="none" xmlns="http://www.w3.org/2000/svg">
<g clip-path="url(#clip0_615_306)">
<path d="M5.2 0C2.3 0 0 2.3 0 5.2V36.9C0 37.4 0.4 37.8 0.9 37.8C0.9 35 2.6 32.4 5.2 31.3V0Z" fill="url(#paint0_linear_615_306)"/>
<path d="M17.4 23.7H13.8V27.2999H17.4V23.7Z" fill="url(#paint1_linear_615_306)"/>
<path d="M29.3 20.9V28.4C30.5 28.7 31.5 29.8 31.5 31.2C31.5 32.8 30.2 34.1 28.6 34.1C27 34.1 25.7 32.8 25.7 31.2C25.7 29.9 26.6 28.7 27.9 28.4V20.9L21.5 34.5L24.6 37.6H32.5L35.6 34.5L29.3 20.9Z" fill="url(#paint2_linear_615_306)"/>
<path d="M30.4 10.7H26.8V14.3H30.4V10.7Z" fill="url(#paint3_linear_615_306)"/>
<path d="M28.6 32.7C29.4284 32.7 30.1 32.0284 30.1 31.2C30.1 30.3715 29.4284 29.7 28.6 29.7C27.7715 29.7 27.1 30.3715 27.1 31.2C27.1 32.0284 27.7715 32.7 28.6 32.7Z" fill="url(#paint4_linear_615_306)"/>
<path d="M43.2999 23.7H39.7V27.2999H43.2999V23.7Z" fill="url(#paint5_linear_615_306)"/>
<path d="M49.1 5.30005H8.10002C7.60002 5.30005 7.20002 5.70005 7.20002 6.20005V32.6C4.70002 33 2.90002 35.2 2.90002 37.8C2.90002 40.7001 5.30002 43.1 8.20002 43.1H49.2C49.7 43.1 50.1 42.7001 50.1 42.2001V6.30005C50 5.70005 49.6 5.30005 49.1 5.30005ZM41.5 39H15.7C15.3 39 15 38.7001 15 38.3C15 37.9 15.3 37.6 15.7 37.6H22.6L20.1 35.2001C19.9 35 19.8 34.7001 20 34.4001L27.9 17.5C28.2 17 28.9 17 29.2 17.5L37.1 34.4001C37.2 34.7001 37.2 35 37 35.2001L34.5 37.6H41.4C41.8 37.6 42.1 37.9 42.1 38.3C42.1 38.7001 41.9 39 41.5 39ZM44.1 28.7001H39.1C38.7 28.7001 38.4 28.4 38.4 28V23C38.4 22.6 38.7 22.3 39.1 22.3H40.5C39.4 18.1 36 14.8 31.9 13.7V15.1C31.9 15.5 31.6 15.8 31.2 15.8H26.2C25.8 15.8 25.5 15.5 25.5 15.1V13.7C21.3 14.8 18 18.1 16.9 22.3H18.3C18.7 22.3 19 22.6 19 23V28C19 28.4 18.7 28.7001 18.3 28.7001H13.3C12.9 28.7001 12.6 28.4 12.6 28V23C12.6 22.6 12.9 22.3 13.3 22.3H15.5C16.7 17.3 20.6 13.4 25.6 12.2V10C25.6 9.60005 25.9 9.30005 26.3 9.30005H31.3C31.7 9.30005 32 9.60005 32 10V12.2C36.9 13.4 40.9 17.2 42.1 22.3H44C44.4 22.3 44.7 22.6 44.7 23V28H44.8C44.8 28.4 44.5 28.7001 44.1 28.7001Z" fill="url(#paint6_linear_615_306)"/>
</g>
<defs>
<linearGradient id="paint0_linear_615_306" x1="2.6" y1="0" x2="2.6" y2="37.8" gradientUnits="userSpaceOnUse">
<stop stop-color="#CD1D5B"/>
<stop offset="1" stop-color="#E03F3F"/>
</linearGradient>
<linearGradient id="paint1_linear_615_306" x1="15.6" y1="23.7" x2="15.6" y2="27.2999" gradientUnits="userSpaceOnUse">
<stop stop-color="#CD1D5B"/>
<stop offset="1" stop-color="#E03F3F"/>
</linearGradient>
<linearGradient id="paint2_linear_615_306" x1="28.55" y1="20.9" x2="28.55" y2="37.6" gradientUnits="userSpaceOnUse">
<stop stop-color="#CD1D5B"/>
<stop offset="1" stop-color="#E03F3F"/>
</linearGradient>
<linearGradient id="paint3_linear_615_306" x1="28.6" y1="10.7" x2="28.6" y2="14.3" gradientUnits="userSpaceOnUse">
<stop stop-color="#CD1D5B"/>
<stop offset="1" stop-color="#E03F3F"/>
</linearGradient>
<linearGradient id="paint4_linear_615_306" x1="28.6" y1="29.7" x2="28.6" y2="32.7" gradientUnits="userSpaceOnUse">
<stop stop-color="#CD1D5B"/>
<stop offset="1" stop-color="#E03F3F"/>
</linearGradient>
<linearGradient id="paint5_linear_615_306" x1="41.5" y1="23.7" x2="41.5" y2="27.2999" gradientUnits="userSpaceOnUse">
<stop stop-color="#CD1D5B"/>
<stop offset="1" stop-color="#E03F3F"/>
</linearGradient>
<linearGradient id="paint6_linear_615_306" x1="-0.499876" y1="44.5001" x2="54.0001" y2="9.00006" gradientUnits="userSpaceOnUse">
<stop stop-color="#CD1D5B"/>
<stop offset="1" stop-color="#E03F3F"/>
</linearGradient>
<clipPath id="clip0_615_306">
<rect width="50.1" height="43.1" fill="white"/>
</clipPath>
</defs>
</svg>
