<svg width="46" height="46" viewBox="0 0 46 46" fill="none" xmlns="http://www.w3.org/2000/svg">
<g clip-path="url(#clip0_615_575)">
<path d="M16.7816 0C15.9669 0 15.3152 0.651712 15.3152 1.41204V12.7084C15.3152 13.0885 15.4782 13.4687 15.7497 13.7403L21.941 19.9315C22.4841 20.4746 23.4073 20.4746 23.9504 19.9315L30.1417 13.7403C30.1417 13.7403 30.5761 13.0885 30.5761 12.7084V1.46635C30.6305 0.651712 29.9787 0 29.2184 0H16.8359H16.7816ZM1.46635 15.3695C0.651712 15.3695 0 16.0212 0 16.7816V29.1641C0 29.9787 0.651712 30.5762 1.46635 30.5762H12.7627C13.1429 30.5762 13.523 30.4132 13.7946 30.1417L19.9858 23.9504C20.5289 23.4073 20.5289 22.4841 19.9858 21.941L13.7946 15.7497C13.7946 15.7497 13.1429 15.3152 12.7627 15.3152H1.46635V15.3695ZM33.2373 15.3695C32.8571 15.3695 32.477 15.5325 32.2054 15.804L26.0142 21.9953C25.4711 22.5384 25.4711 23.4616 26.0142 24.0047L32.2054 30.196C32.2054 30.196 32.8571 30.6305 33.2373 30.6305H44.5336C45.3483 30.6305 45.9457 29.9787 45.9457 29.2184V16.8359C45.9457 16.0212 45.294 15.3695 44.5336 15.3695H33.2373ZM22.9728 25.634C22.5927 25.634 22.2668 25.7969 21.9953 26.0685L15.804 32.2597C15.804 32.2597 15.3695 32.9115 15.3695 33.2916V44.588C15.3695 45.4026 16.0212 46 16.8359 46H29.2184C30.0331 46 30.6305 45.3483 30.6305 44.588V33.2916C30.6305 32.9115 30.4675 32.5313 30.196 32.2597L24.0047 26.0685C23.7332 25.7969 23.353 25.634 22.9728 25.634Z" fill="url(#paint0_linear_615_575)"/>
</g>
<defs>
<linearGradient id="paint0_linear_615_575" x1="0.500001" y1="37" x2="56" y2="14" gradientUnits="userSpaceOnUse">
<stop stop-color="#CD1D5B"/>
<stop offset="1" stop-color="#E03F3F"/>
<stop offset="1" stop-color="#E03F3F"/>
</linearGradient>
<clipPath id="clip0_615_575">
<rect width="46" height="46" fill="white"/>
</clipPath>
</defs>
</svg>
