<svg width="48" height="50" viewBox="0 0 48 50" fill="none" xmlns="http://www.w3.org/2000/svg">
<g clip-path="url(#clip0_615_564)">
<path d="M39.4312 25.9615H33.6712C32.5055 25.9615 31.4255 26.408 30.6026 27.2322L28.7169 29.1209C28.5455 29.2926 28.3055 29.3956 28.0655 29.3956H19.9569C19.7169 29.3956 19.4769 29.2926 19.3055 29.1209L17.4198 27.2322C16.5969 26.408 15.4998 25.9615 14.3512 25.9615H8.5912C3.53406 25.9615 0.0197754 31.4904 0.0197754 37.9808C0.0197754 44.4712 3.7912 50 8.5912 50C12.1055 50 15.1398 46.5316 15.9969 43.1319C16.4083 41.4835 17.8826 39.6978 19.5798 39.6978H28.4769C30.1741 39.6978 31.6483 41.4835 32.0598 43.1319C32.9169 46.5316 35.9512 50 39.4655 50C44.2655 50 48.0369 44.7287 48.0369 37.9808C48.0369 31.2328 44.5226 25.9615 39.4655 25.9615H39.4312ZM12.8598 36.2637H10.2883V38.8393C10.2883 39.3201 9.9112 39.6978 9.4312 39.6978C8.9512 39.6978 8.57406 39.3201 8.57406 38.8393V36.2637H6.00263C5.52263 36.2637 5.14549 35.886 5.14549 35.4052C5.14549 34.9245 5.52263 34.5467 6.00263 34.5467H8.57406V31.9712C8.57406 31.4904 8.9512 31.1126 9.4312 31.1126C9.9112 31.1126 10.2883 31.4904 10.2883 31.9712V34.5467H12.8598C13.3398 34.5467 13.7169 34.9245 13.7169 35.4052C13.7169 35.886 13.3398 36.2637 12.8598 36.2637ZM37.7169 29.3956C38.6598 29.3956 39.4312 30.1683 39.4312 31.1126C39.4312 32.057 38.6598 32.8297 37.7169 32.8297C36.7741 32.8297 36.0026 32.057 36.0026 31.1126C36.0026 30.1683 36.7741 29.3956 37.7169 29.3956ZM34.2883 36.2637C33.3455 36.2637 32.5741 35.4911 32.5741 34.5467C32.5741 33.6023 33.3455 32.8297 34.2883 32.8297C35.2312 32.8297 36.0026 33.6023 36.0026 34.5467C36.0026 35.4911 35.2312 36.2637 34.2883 36.2637ZM37.7169 39.6978C36.7741 39.6978 36.0026 38.9251 36.0026 37.9808C36.0026 37.0364 36.7741 36.2637 37.7169 36.2637C38.6598 36.2637 39.4312 37.0364 39.4312 37.9808C39.4312 38.9251 38.6598 39.6978 37.7169 39.6978ZM41.1455 36.2637C40.2026 36.2637 39.4312 35.4911 39.4312 34.5467C39.4312 33.6023 40.2026 32.8297 41.1455 32.8297C42.0883 32.8297 42.8598 33.6023 42.8598 34.5467C42.8598 35.4911 42.0883 36.2637 41.1455 36.2637Z" fill="url(#paint0_linear_615_564)"/>
<path d="M5.53978 20.5701V16.3977C5.53978 14.9725 6.70549 13.805 8.12835 13.805H10.5455C10.7341 13.2727 10.9398 12.7747 11.1798 12.2768L9.46549 10.5598C8.45406 9.54671 8.45406 7.89836 9.46549 6.88531L12.4141 3.94919C13.4255 2.93614 15.0712 2.93614 16.0826 3.94919L17.7969 5.66622C18.2941 5.42584 18.8083 5.20262 19.3398 5.03092V2.6099C19.3398 1.18476 20.5055 0.0171814 21.9284 0.0171814H26.0769C27.4998 0.0171814 28.6655 1.18476 28.6655 2.6099V5.03092C29.1969 5.21979 29.7112 5.42584 30.1912 5.66622L31.9055 3.94919C32.9169 2.93614 34.5626 2.93614 35.5741 3.94919L38.5055 6.88531C39.5169 7.89836 39.5169 9.54671 38.5055 10.5598L36.7912 12.2768C37.0312 12.7747 37.2541 13.2898 37.4255 13.805H39.8426C41.2826 13.805 42.4312 14.9725 42.4312 16.3977V20.5701C42.4312 21.9952 41.2655 23.1628 39.8426 23.1628H37.4255C37.2369 23.6951 37.0312 24.2102 36.7912 24.7081L36.9798 24.897C36.6712 24.897 36.3455 24.8798 36.0369 24.897H30.2941C31.9398 23.2658 32.9512 21.0165 32.9512 18.5096C32.9512 13.5474 28.9398 9.51237 23.9683 9.51237C18.9969 9.51237 14.9855 13.5474 14.9855 18.5096C14.9855 20.9993 15.9969 23.2658 17.6426 24.897H11.2826C11.1798 24.897 11.0769 24.897 10.9569 24.897L11.1455 24.7081C10.9055 24.2102 10.6826 23.6951 10.5112 23.1628H8.09406C6.67121 23.1628 5.50549 21.9952 5.50549 20.5701H5.53978Z" fill="url(#paint1_linear_615_564)"/>
<path d="M20.5569 16.0371C20.1626 15.6422 19.5112 15.6422 19.0998 16.0371L17.3683 17.7713C16.9741 18.1662 16.9741 18.8187 17.3683 19.2308L19.0998 20.965C19.4941 21.3599 20.1455 21.3599 20.5569 20.965C20.9512 20.5701 20.9512 19.9176 20.5569 19.5055L19.5455 18.4925L20.5569 17.4794C20.9512 17.0845 20.9512 16.4148 20.5569 16.0199V16.0371Z" fill="url(#paint2_linear_615_564)"/>
<path d="M27.4484 20.965C27.8427 21.3599 28.4941 21.3599 28.9056 20.965L30.637 19.2308C31.0313 18.8359 31.0313 18.1834 30.637 17.7713L28.9056 16.0371C28.5113 15.6422 27.8599 15.6422 27.4484 16.0371C27.0541 16.432 27.0541 17.0845 27.4484 17.4966L28.4599 18.5096L27.4484 19.5227C27.0541 19.9348 27.0541 20.5872 27.4484 20.9821V20.965Z" fill="url(#paint3_linear_615_564)"/>
<path d="M23.8998 14.921L22.1341 21.5488C21.9798 22.0982 22.3227 22.6648 22.8541 22.8194C23.4027 22.9567 23.9684 22.6305 24.1055 22.0982L25.8884 15.4705C26.0255 14.921 25.6998 14.3544 25.1684 14.1999C24.6198 14.0625 24.0541 14.3887 23.8998 14.921Z" fill="url(#paint4_linear_615_564)"/>
</g>
<defs>
<linearGradient id="paint0_linear_615_564" x1="2.00269" y1="43.5" x2="52.5027" y2="27.5" gradientUnits="userSpaceOnUse">
<stop stop-color="#cc0022"/>
<stop offset="1" stop-color="#E03F3F"/>
</linearGradient>
<linearGradient id="paint1_linear_615_564" x1="7.50256" y1="25" x2="45.5026" y2="6.5" gradientUnits="userSpaceOnUse">
<stop stop-color="#cc0022"/>
<stop offset="1" stop-color="#E03F3F"/>
</linearGradient>
<linearGradient id="paint2_linear_615_564" x1="18.9626" y1="15.7409" x2="18.9626" y2="21.2612" gradientUnits="userSpaceOnUse">
<stop stop-color="#cc0022"/>
<stop offset="1" stop-color="#E03F3F"/>
</linearGradient>
<linearGradient id="paint3_linear_615_564" x1="29.0427" y1="15.7409" x2="29.0427" y2="21.2612" gradientUnits="userSpaceOnUse">
<stop stop-color="#cc0022"/>
<stop offset="1" stop-color="#E03F3F"/>
</linearGradient>
<linearGradient id="paint4_linear_615_564" x1="24.0083" y1="14.1685" x2="24.0083" y2="22.8508" gradientUnits="userSpaceOnUse">
<stop stop-color="#cc0022"/>
<stop offset="1" stop-color="#E03F3F"/>
</linearGradient>
<clipPath id="clip0_615_564">
<rect width="48" height="50" fill="white" transform="translate(0.00268555)"/>
</clipPath>
</defs>
</svg>
