<svg width="28" height="23" viewBox="0 0 28 23" fill="none" xmlns="http://www.w3.org/2000/svg">
<path d="M8.80727 22.4879C10.9571 22.5011 13.0882 22.0996 15.077 21.3069C17.0658 20.5142 18.8727 19.3461 20.3928 17.8701C21.913 16.3942 23.1162 14.64 23.9327 12.7091C24.7492 10.7782 25.1626 8.70915 25.1491 6.62193V5.89289C26.2635 5.10019 27.228 4.12609 28 3.01378C26.9507 3.45935 25.8403 3.75487 24.7036 3.8911C25.9088 3.19391 26.8131 2.0965 27.2491 0.801929C26.1259 1.45614 24.8943 1.91605 23.6091 2.16117C22.7435 1.26576 21.5982 0.672253 20.3502 0.472482C19.1023 0.272712 17.8213 0.477813 16.7055 1.05605C15.5897 1.63429 14.7013 2.55343 14.1777 3.67125C13.6541 4.78907 13.5246 6.04326 13.8091 7.23977C11.5259 7.13096 9.29182 6.55647 7.25246 5.5537C5.21309 4.55094 3.41414 3.14239 1.97273 1.41976C1.2459 2.64453 1.0256 4.09168 1.35642 5.46821C1.68725 6.84475 2.54448 8.0478 3.75455 8.83378C2.86187 8.80035 1.98985 8.5633 1.20909 8.1418V8.20359C1.20116 9.48354 1.64528 10.7275 2.46744 11.728C3.2896 12.7286 4.44013 13.4254 5.72727 13.7023C4.89699 13.9191 4.02728 13.9529 3.18182 13.8012C3.55445 14.8927 4.26578 15.8457 5.21824 16.5293C6.1707 17.2129 7.31766 17.5936 8.50182 17.6194C6.47718 19.2017 3.96084 20.0727 1.36182 20.0907C0.906123 20.0779 0.451496 20.0408 0 19.9795C2.63067 21.6068 5.68808 22.4647 8.80727 22.4509" fill="white"/>
</svg>
